<mxfile host="app.diagrams.net" modified="2021-11-22T20:27:20.505Z" agent="5.0 (Windows NT 10.0; Win64; x64) AppleWebKit/537.36 (KHTML, like Gecko) Chrome/96.0.4664.45 Safari/537.36" etag="wBYqNx4F7im6tKW78wFv" version="15.8.3" type="github">
  <diagram id="W-8rn3XZyEIhdkd16H65" name="Page-1">
    <mxGraphModel dx="413" dy="236" grid="1" gridSize="10" guides="1" tooltips="1" connect="1" arrows="1" fold="1" page="1" pageScale="1" pageWidth="1169" pageHeight="827" math="0" shadow="0">
      <root>
        <mxCell id="0" />
        <mxCell id="1" parent="0" />
        <mxCell id="BOXsYO4kTFuQAI5CkqeE-1" value="Cliente" style="shape=umlActor;verticalLabelPosition=bottom;verticalAlign=top;html=1;" vertex="1" parent="1">
          <mxGeometry x="70" y="320" width="30" height="60" as="geometry" />
        </mxCell>
        <mxCell id="BOXsYO4kTFuQAI5CkqeE-3" value="" style="html=1;" vertex="1" parent="1">
          <mxGeometry x="230" y="50" width="510" height="760" as="geometry" />
        </mxCell>
        <mxCell id="BOXsYO4kTFuQAI5CkqeE-2" value="Entra no link" style="ellipse;whiteSpace=wrap;html=1;" vertex="1" parent="1">
          <mxGeometry x="280" y="170" width="140" height="70" as="geometry" />
        </mxCell>
        <mxCell id="BOXsYO4kTFuQAI5CkqeE-4" value="Venda de passagens áreas" style="text;html=1;resizable=0;autosize=1;align=center;verticalAlign=middle;points=[];fillColor=none;strokeColor=none;rounded=0;" vertex="1" parent="1">
          <mxGeometry x="395" y="70" width="160" height="20" as="geometry" />
        </mxCell>
        <mxCell id="BOXsYO4kTFuQAI5CkqeE-5" value="Seleciona local de origem, destino e se a passagem deseja passagem de volta" style="ellipse;whiteSpace=wrap;html=1;" vertex="1" parent="1">
          <mxGeometry x="530" y="135" width="140" height="80" as="geometry" />
        </mxCell>
        <mxCell id="BOXsYO4kTFuQAI5CkqeE-6" value="Include" style="endArrow=open;endSize=12;dashed=1;html=1;rounded=0;exitX=1;exitY=0.5;exitDx=0;exitDy=0;entryX=0;entryY=0.5;entryDx=0;entryDy=0;" edge="1" parent="1" source="BOXsYO4kTFuQAI5CkqeE-2" target="BOXsYO4kTFuQAI5CkqeE-5">
          <mxGeometry width="160" relative="1" as="geometry">
            <mxPoint x="420" y="260" as="sourcePoint" />
            <mxPoint x="580" y="260" as="targetPoint" />
            <Array as="points">
              <mxPoint x="480" y="190" />
            </Array>
          </mxGeometry>
        </mxCell>
        <mxCell id="BOXsYO4kTFuQAI5CkqeE-10" value="Include" style="endArrow=open;endSize=12;dashed=1;html=1;rounded=0;entryX=0.5;entryY=0;entryDx=0;entryDy=0;" edge="1" parent="1" source="BOXsYO4kTFuQAI5CkqeE-2" target="BOXsYO4kTFuQAI5CkqeE-11">
          <mxGeometry width="160" relative="1" as="geometry">
            <mxPoint x="310" y="300" as="sourcePoint" />
            <mxPoint x="470" y="300" as="targetPoint" />
          </mxGeometry>
        </mxCell>
        <mxCell id="BOXsYO4kTFuQAI5CkqeE-11" value="Seleciona data de ida" style="ellipse;whiteSpace=wrap;html=1;" vertex="1" parent="1">
          <mxGeometry x="480" y="300" width="105" height="60" as="geometry" />
        </mxCell>
        <mxCell id="BOXsYO4kTFuQAI5CkqeE-12" value="Seleciona data de volta" style="ellipse;whiteSpace=wrap;html=1;" vertex="1" parent="1">
          <mxGeometry x="600" y="300" width="105" height="60" as="geometry" />
        </mxCell>
        <mxCell id="BOXsYO4kTFuQAI5CkqeE-14" value="Extends" style="endArrow=open;endSize=12;dashed=1;html=1;rounded=0;entryX=0.976;entryY=0.724;entryDx=0;entryDy=0;entryPerimeter=0;exitX=0.5;exitY=0;exitDx=0;exitDy=0;" edge="1" parent="1" source="BOXsYO4kTFuQAI5CkqeE-12" target="BOXsYO4kTFuQAI5CkqeE-2">
          <mxGeometry width="160" relative="1" as="geometry">
            <mxPoint x="580" y="260" as="sourcePoint" />
            <mxPoint x="740" y="260" as="targetPoint" />
          </mxGeometry>
        </mxCell>
        <mxCell id="BOXsYO4kTFuQAI5CkqeE-17" value="Pressiona botão &quot;consultar&quot;" style="ellipse;whiteSpace=wrap;html=1;" vertex="1" parent="1">
          <mxGeometry x="280" y="390" width="140" height="70" as="geometry" />
        </mxCell>
        <mxCell id="BOXsYO4kTFuQAI5CkqeE-18" value="Pressiona botão &quot;comprar&quot; para determinado voo" style="ellipse;whiteSpace=wrap;html=1;" vertex="1" parent="1">
          <mxGeometry x="280" y="480" width="140" height="80" as="geometry" />
        </mxCell>
        <mxCell id="BOXsYO4kTFuQAI5CkqeE-19" value="Mostra classes e horários dos voos disponíveis" style="ellipse;whiteSpace=wrap;html=1;" vertex="1" parent="1">
          <mxGeometry x="500" y="390" width="140" height="80" as="geometry" />
        </mxCell>
        <mxCell id="BOXsYO4kTFuQAI5CkqeE-20" value="Include" style="endArrow=open;endSize=12;dashed=1;html=1;rounded=0;exitX=1;exitY=0.5;exitDx=0;exitDy=0;" edge="1" parent="1" source="BOXsYO4kTFuQAI5CkqeE-17" target="BOXsYO4kTFuQAI5CkqeE-19">
          <mxGeometry width="160" relative="1" as="geometry">
            <mxPoint x="408.70566510789104" y="240.1384077976212" as="sourcePoint" />
            <mxPoint x="542.5" y="310" as="targetPoint" />
          </mxGeometry>
        </mxCell>
        <mxCell id="BOXsYO4kTFuQAI5CkqeE-21" value="Include" style="endArrow=open;endSize=12;dashed=1;html=1;rounded=0;exitX=1;exitY=0.5;exitDx=0;exitDy=0;" edge="1" parent="1" source="BOXsYO4kTFuQAI5CkqeE-18" target="BOXsYO4kTFuQAI5CkqeE-22">
          <mxGeometry width="160" relative="1" as="geometry">
            <mxPoint x="430.0000000000002" y="435" as="sourcePoint" />
            <mxPoint x="510.10608855051555" y="437.798616962221" as="targetPoint" />
          </mxGeometry>
        </mxCell>
        <mxCell id="BOXsYO4kTFuQAI5CkqeE-22" value="Mostra poltronas disponíveis" style="ellipse;whiteSpace=wrap;html=1;" vertex="1" parent="1">
          <mxGeometry x="500" y="480" width="140" height="80" as="geometry" />
        </mxCell>
        <mxCell id="BOXsYO4kTFuQAI5CkqeE-23" value="Efetua pagamento" style="ellipse;whiteSpace=wrap;html=1;" vertex="1" parent="1">
          <mxGeometry x="280" y="570" width="140" height="80" as="geometry" />
        </mxCell>
        <mxCell id="BOXsYO4kTFuQAI5CkqeE-24" value="Include" style="endArrow=open;endSize=12;dashed=1;html=1;rounded=0;exitX=1;exitY=0.5;exitDx=0;exitDy=0;entryX=0;entryY=0.5;entryDx=0;entryDy=0;" edge="1" parent="1" source="BOXsYO4kTFuQAI5CkqeE-23" target="BOXsYO4kTFuQAI5CkqeE-25">
          <mxGeometry width="160" relative="1" as="geometry">
            <mxPoint x="430.0000000000002" y="525" as="sourcePoint" />
            <mxPoint x="510.10608855051555" y="527.798616962221" as="targetPoint" />
          </mxGeometry>
        </mxCell>
        <mxCell id="BOXsYO4kTFuQAI5CkqeE-25" value="Mostrar PDF da passagem para download" style="ellipse;whiteSpace=wrap;html=1;" vertex="1" parent="1">
          <mxGeometry x="495" y="565" width="150" height="90" as="geometry" />
        </mxCell>
        <mxCell id="BOXsYO4kTFuQAI5CkqeE-28" style="edgeStyle=orthogonalEdgeStyle;rounded=0;orthogonalLoop=1;jettySize=auto;html=1;endArrow=none;endFill=0;" edge="1" parent="1" source="BOXsYO4kTFuQAI5CkqeE-1" target="BOXsYO4kTFuQAI5CkqeE-2">
          <mxGeometry relative="1" as="geometry" />
        </mxCell>
        <mxCell id="BOXsYO4kTFuQAI5CkqeE-29" style="edgeStyle=orthogonalEdgeStyle;rounded=0;orthogonalLoop=1;jettySize=auto;html=1;entryX=0;entryY=0.5;entryDx=0;entryDy=0;endArrow=none;endFill=0;" edge="1" parent="1" target="BOXsYO4kTFuQAI5CkqeE-17">
          <mxGeometry relative="1" as="geometry">
            <mxPoint x="85" y="400" as="sourcePoint" />
            <Array as="points">
              <mxPoint x="85" y="425" />
            </Array>
          </mxGeometry>
        </mxCell>
        <mxCell id="BOXsYO4kTFuQAI5CkqeE-30" style="edgeStyle=orthogonalEdgeStyle;rounded=0;orthogonalLoop=1;jettySize=auto;html=1;entryX=0;entryY=0.5;entryDx=0;entryDy=0;endArrow=none;endFill=0;" edge="1" parent="1" target="BOXsYO4kTFuQAI5CkqeE-18">
          <mxGeometry relative="1" as="geometry">
            <mxPoint x="85" y="420" as="sourcePoint" />
            <Array as="points">
              <mxPoint x="85" y="520" />
            </Array>
          </mxGeometry>
        </mxCell>
        <mxCell id="BOXsYO4kTFuQAI5CkqeE-31" style="edgeStyle=orthogonalEdgeStyle;rounded=0;orthogonalLoop=1;jettySize=auto;html=1;entryX=0;entryY=0.5;entryDx=0;entryDy=0;endArrow=none;endFill=0;" edge="1" parent="1" target="BOXsYO4kTFuQAI5CkqeE-23">
          <mxGeometry relative="1" as="geometry">
            <mxPoint x="85" y="410" as="sourcePoint" />
            <Array as="points">
              <mxPoint x="85" y="610" />
            </Array>
          </mxGeometry>
        </mxCell>
        <mxCell id="BOXsYO4kTFuQAI5CkqeE-32" value="Mostrar erro no pagamento" style="ellipse;whiteSpace=wrap;html=1;" vertex="1" parent="1">
          <mxGeometry x="506" y="670" width="128" height="80" as="geometry" />
        </mxCell>
        <mxCell id="BOXsYO4kTFuQAI5CkqeE-34" value="Extends" style="endArrow=open;endSize=12;dashed=1;html=1;rounded=0;entryX=1;entryY=1;entryDx=0;entryDy=0;exitX=0;exitY=0.5;exitDx=0;exitDy=0;" edge="1" parent="1" source="BOXsYO4kTFuQAI5CkqeE-32" target="BOXsYO4kTFuQAI5CkqeE-23">
          <mxGeometry width="160" relative="1" as="geometry">
            <mxPoint x="662.5" y="310" as="sourcePoint" />
            <mxPoint x="426.6399999999999" y="230.67999999999995" as="targetPoint" />
          </mxGeometry>
        </mxCell>
      </root>
    </mxGraphModel>
  </diagram>
</mxfile>
